# xmcd CD database file
#
# Track frame offsets:
#	150
#	15195
#	27470
#	37895
#	48022
#	57180
#	68565
#	79417
#	91232
#	103485
#	117537
#	128815
#
# Disc length: 1888 seconds
#
# Revision: 2
# Processed by: cddbd v1.4b41PL1 Copyright (c) Steve Scherf et al.
# Submitted via: Feurio! 1.52 - http://www.feurio.com
#
DISCID=95075e0c
DTITLE=Jim Reeves - Unknown CD #95075E0CE53D9B3F
DYEAR=1900
DGENRE=
TTITLE0=Track 01: Blue Side Of Lonesome
TTITLE1=Track 02: Pride Goes Before A Fall
TTITLE2=Track 03: Look Behind You, I'll Be There
TTITLE3=Track 04: Is It Really Over
TTITLE4=Track 05: I Won't Forget You
TTITLE5=Track 06: Adios Amigo
TTITLE6=Track 07: Welcome To My world
TTITLE7=Track 08: In The Misty Moonlight
TTITLE8=Track 09: A Letter To My Heart
TTITLE9=Track 10: This Is It
TTITLE10=Track 11: Anna Marie
TTITLE11=Track 12: Distant Drums
EXTD=
EXTT0=
EXTT1=
EXTT2=
EXTT3=
EXTT4=
EXTT5=
EXTT6=
EXTT7=
EXTT8=
EXTT9=
EXTT10=
EXTT11=
PLAYORDER=
